<?xml version="1.0" standalone="no"?>
<!DOCTYPE svg PUBLIC "-//W3C//DTD SVG 20010904//EN" "http://www.w3.org/TR/2001/REC-SVG-20010904/DTD/svg10.dtd">
<svg xmlns="http://www.w3.org/2000/svg" 
    xmlns:xlink="http://www.w3.org/1999/xlink"
    xmlns:krita="http://krita.org/namespaces/svg/krita"
    xmlns:sodipodi="http://sodipodi.sourceforge.net/DTD/sodipodi-0.dtd"
    width="122.88pt"
    height="122.88pt"
    viewBox="0 0 122.88 122.88">
<defs/>
<path id="githubLogo" transform="matrix(7.68 0 0 7.68 11.4649807933961 12.6978569080444)" fill="#ffffff" fill-rule="evenodd" stroke-opacity="0" stroke="#000000" stroke-width="0" stroke-linecap="square" stroke-linejoin="bevel" d="M6.50716 0C2.91196 0 0 2.91196 0 6.50716C0 9.38658 1.86268 11.8186 4.44927 12.6808C4.77463 12.7378 4.89664 12.5426 4.89664 12.3717C4.89664 12.2172 4.88851 11.7048 4.88851 11.1598C3.25358 11.4607 2.83062 10.7612 2.70047 10.3952C2.62727 10.2081 2.31004 9.6306 2.03349 9.47606C1.80574 9.35405 1.48038 9.05309 2.02535 9.04496C2.53779 9.03682 2.90382 9.51673 3.02583 9.71194C3.61148 10.6962 4.54688 10.4196 4.92104 10.2488C4.97798 9.82582 5.14879 9.54113 5.33587 9.37845C3.88803 9.21577 2.37511 8.65453 2.37511 6.16554C2.37511 5.45788 2.62727 4.87224 3.0421 4.41674C2.97703 4.25406 2.74928 3.58707 3.10717 2.69234C3.10717 2.69234 3.65215 2.52153 4.89664 3.35932C5.41721 3.21291 5.97032 3.13971 6.52343 3.13971C7.07654 3.13971 7.62965 3.21291 8.15022 3.35932C9.39472 2.51339 9.93969 2.69234 9.93969 2.69234C10.2976 3.58707 10.0698 4.25406 10.0048 4.41674C10.4196 4.87224 10.6717 5.44975 10.6717 6.16554C10.6717 8.66266 9.1507 9.21577 7.70286 9.37845C7.93874 9.5818 8.14209 9.97223 8.14209 10.5823C8.14209 11.4526 8.13395 12.1521 8.13395 12.3717C8.13395 12.5426 8.25596 12.7459 8.58132 12.6808C11.1517 11.8186 13.0143 9.37845 13.0143 6.50716C13.0143 2.91196 10.1024 0 6.50716 0Z" sodipodi:nodetypes="cccccccccccccccccccccccccc"/>
</svg>
