<svg width="60" height="60" viewBox="0 0 60 60" fill="none" xmlns="http://www.w3.org/2000/svg">
<path d="M45.9421 28.6289C45.9208 28.3782 45.5709 28.3321 45.4615 28.5587C43.7644 32.0744 40.1655 34.5 36.0001 34.5C30.2011 34.5 25.5001 29.799 25.5001 24C25.5001 19.8345 27.9256 16.2356 31.4414 14.5385C31.668 14.4292 31.6219 14.0792 31.3712 14.0579C30.9192 14.0196 30.4619 14 30 14C21.1634 14 14 21.1634 14 30C14 38.8366 21.1634 46 30 46C38.8366 46 46 38.8366 46 30C46 29.5381 45.9804 29.0809 45.9421 28.6289Z" fill="#04001B"/>
</svg>
