<svg width="60" height="60" viewBox="0 0 60 60" fill="none" xmlns="http://www.w3.org/2000/svg">
<path d="M28.5846 1.41769C29.3659 0.635095 30.6341 0.635096 31.4154 1.41769L38.1959 8.20934C38.5715 8.58553 39.0814 8.79672 39.6129 8.79629L49.2099 8.78844C50.3158 8.78753 51.2125 9.68422 51.2116 10.7901L51.2037 20.3871C51.2033 20.9186 51.4145 21.4285 51.7907 21.8041L58.5823 28.5846C59.3649 29.3659 59.3649 30.6341 58.5823 31.4154L51.7907 38.1959C51.4145 38.5715 51.2033 39.0814 51.2037 39.6129L51.2116 49.2099C51.2125 50.3158 50.3158 51.2125 49.2099 51.2116L39.6129 51.2037C39.0814 51.2033 38.5715 51.4145 38.1959 51.7907L31.4154 58.5823C30.6341 59.3649 29.3659 59.3649 28.5846 58.5823L21.8041 51.7907C21.4285 51.4145 20.9186 51.2033 20.3871 51.2037L10.7901 51.2116C9.68422 51.2125 8.78753 50.3158 8.78844 49.2099L8.79629 39.6129C8.79672 39.0814 8.58552 38.5715 8.20934 38.1959L1.41769 31.4154C0.635095 30.6341 0.635096 29.3659 1.41769 28.5846L8.20934 21.8041C8.58553 21.4285 8.79672 20.9186 8.79629 20.3871L8.78844 10.7901C8.78753 9.68422 9.68422 8.78753 10.7901 8.78844L20.3871 8.79629C20.9186 8.79672 21.4285 8.58552 21.8041 8.20934L28.5846 1.41769Z" fill="white"/>
</svg>
